<?xml version="1.0" standalone="no"?>
<!DOCTYPE svg PUBLIC "-//W3C//DTD SVG 20010904//EN"
 "http://www.w3.org/TR/2001/REC-SVG-20010904/DTD/svg10.dtd">
<svg version="1.0" xmlns="http://www.w3.org/2000/svg"
 width="356.000000pt" height="48.000000pt" viewBox="0 0 356.000000 48.000000"
 preserveAspectRatio="xMidYMid meet">

<g transform="translate(0.000000,48.000000) scale(0.100000,-0.100000)"
fill="#000000" stroke="none">
<path d="M92 343 c143 -264 163 -298 185 -301 20 -3 34 19 118 187 l95 191
-35 0 c-35 0 -35 0 -100 -131 -36 -72 -70 -129 -75 -127 -6 2 -41 59 -78 128
l-68 125 -42 3 -42 3 42 -78z"/>
<path d="M620 230 l0 -190 185 0 185 0 0 35 0 35 -150 0 -150 0 0 50 c0 41 3
50 18 51 9 0 54 0 100 -1 l82 -1 0 30 0 30 -97 3 -98 3 -3 43 -3 42 144 0
c140 0 145 1 150 22 3 12 4 25 1 30 -3 4 -86 8 -185 8 l-179 0 0 -190z"/>
<path d="M1160 230 l0 -190 185 0 185 0 0 35 0 35 -145 0 -145 0 0 155 0 155
-40 0 -40 0 0 -190z"/>
<path d="M1677 402 c-24 -26 -25 -312 -2 -336 23 -23 68 -28 214 -24 154 4
164 9 159 88 -3 41 -5 45 -35 51 -33 6 -33 6 -33 -33 l0 -39 -122 3 -123 3 -3
123 -3 122 126 0 125 0 0 -31 c0 -28 2 -30 33 -27 29 3 32 6 35 41 2 26 -2 45
-14 58 -15 17 -33 19 -179 19 -144 0 -164 -2 -178 -18z"/>
<path d="M2250 230 l0 -190 35 0 35 0 0 190 0 190 -35 0 -35 0 0 -190z"/>
<path d="M2571 239 c-56 -100 -101 -186 -101 -190 0 -5 14 -9 30 -9 25 0 35 8
58 45 l27 45 123 0 123 0 27 -45 c24 -40 31 -44 65 -45 20 0 37 3 37 6 0 3
-46 88 -102 190 l-103 184 -42 0 -41 0 -101 -181z m188 29 c22 -40 37 -76 34
-81 -6 -9 -148 -6 -164 4 -8 4 -6 14 3 30 8 13 27 45 42 72 15 26 31 47 36 47
5 0 27 -32 49 -72z"/>
<path d="M3108 250 c-1 -93 -2 -178 -2 -187 -1 -14 8 -19 36 -21 l37 -3 3 78
3 78 38 3 c37 3 43 -1 116 -77 75 -79 78 -81 124 -81 26 0 47 3 47 6 0 3 -32
36 -71 72 -76 70 -76 80 -6 81 49 2 67 32 67 111 0 109 -1 110 -215 110 l-175
0 -2 -170z m311 88 c10 -26 3 -64 -14 -78 -8 -7 -54 -10 -116 -8 l-104 3 -3
53 -3 52 116 0 c109 0 116 -1 124 -22z"/>
</g>
</svg>
